<mxfile host="app.diagrams.net" modified="2021-01-04T16:04:22.500Z" agent="5.0 (Windows NT 10.0; Win64; x64) AppleWebKit/537.36 (KHTML, like Gecko) Chrome/87.0.4280.88 Safari/537.36" etag="V7q2xHxhZvwFEEtXBfAV" version="14.1.8" type="github" pages="4">
  <diagram id="jM3SQwm_5Wy4ti2OM3sH" name="系统用例图">
    <mxGraphModel dx="1422" dy="772" grid="1" gridSize="10" guides="1" tooltips="1" connect="1" arrows="1" fold="1" page="1" pageScale="1" pageWidth="1169" pageHeight="827" math="0" shadow="0">
      <root>
        <mxCell id="0" />
        <mxCell id="1" parent="0" />
        <mxCell id="6P1el-SRa3GFCwPbT4um-23" value="" style="rounded=0;whiteSpace=wrap;html=1;align=center;fillColor=#f5f5f5;strokeColor=#666666;fontColor=#333333;" parent="1" vertex="1">
          <mxGeometry x="230" y="60" width="510" height="630" as="geometry" />
        </mxCell>
        <mxCell id="6P1el-SRa3GFCwPbT4um-4" value="" style="rounded=0;orthogonalLoop=1;jettySize=auto;html=1;" parent="1" source="6P1el-SRa3GFCwPbT4um-1" target="6P1el-SRa3GFCwPbT4um-3" edge="1">
          <mxGeometry relative="1" as="geometry" />
        </mxCell>
        <mxCell id="6P1el-SRa3GFCwPbT4um-1" value="用户" style="shape=umlActor;verticalLabelPosition=bottom;verticalAlign=top;html=1;outlineConnect=0;" parent="1" vertex="1">
          <mxGeometry x="110" y="314" width="30" height="60" as="geometry" />
        </mxCell>
        <mxCell id="6P1el-SRa3GFCwPbT4um-11" style="edgeStyle=none;rounded=0;orthogonalLoop=1;jettySize=auto;html=1;entryX=1;entryY=0.5;entryDx=0;entryDy=0;" parent="1" source="6P1el-SRa3GFCwPbT4um-2" target="6P1el-SRa3GFCwPbT4um-10" edge="1">
          <mxGeometry relative="1" as="geometry" />
        </mxCell>
        <mxCell id="6P1el-SRa3GFCwPbT4um-15" style="edgeStyle=none;rounded=0;orthogonalLoop=1;jettySize=auto;html=1;entryX=1;entryY=0.5;entryDx=0;entryDy=0;" parent="1" source="6P1el-SRa3GFCwPbT4um-2" target="6P1el-SRa3GFCwPbT4um-14" edge="1">
          <mxGeometry relative="1" as="geometry" />
        </mxCell>
        <mxCell id="6P1el-SRa3GFCwPbT4um-22" style="edgeStyle=none;rounded=0;orthogonalLoop=1;jettySize=auto;html=1;entryX=1.027;entryY=0.6;entryDx=0;entryDy=0;entryPerimeter=0;" parent="1" source="6P1el-SRa3GFCwPbT4um-2" target="6P1el-SRa3GFCwPbT4um-18" edge="1">
          <mxGeometry relative="1" as="geometry" />
        </mxCell>
        <mxCell id="aYJ-yftUFzY5KFX4jH7X-2" style="edgeStyle=none;rounded=0;orthogonalLoop=1;jettySize=auto;html=1;entryX=1;entryY=0.5;entryDx=0;entryDy=0;fontSize=14;" parent="1" source="6P1el-SRa3GFCwPbT4um-2" target="aYJ-yftUFzY5KFX4jH7X-1" edge="1">
          <mxGeometry relative="1" as="geometry" />
        </mxCell>
        <mxCell id="6P1el-SRa3GFCwPbT4um-2" value="快递员" style="shape=umlActor;verticalLabelPosition=bottom;verticalAlign=top;html=1;outlineConnect=0;" parent="1" vertex="1">
          <mxGeometry x="820" y="284" width="30" height="60" as="geometry" />
        </mxCell>
        <mxCell id="6P1el-SRa3GFCwPbT4um-19" value="" style="edgeStyle=none;rounded=0;orthogonalLoop=1;jettySize=auto;html=1;" parent="1" source="6P1el-SRa3GFCwPbT4um-3" target="6P1el-SRa3GFCwPbT4um-5" edge="1">
          <mxGeometry relative="1" as="geometry" />
        </mxCell>
        <mxCell id="6P1el-SRa3GFCwPbT4um-3" value="下单" style="ellipse;whiteSpace=wrap;html=1;verticalAlign=middle;align=center;" parent="1" vertex="1">
          <mxGeometry x="290" y="130" width="110" height="70" as="geometry" />
        </mxCell>
        <mxCell id="6P1el-SRa3GFCwPbT4um-25" value="" style="edgeStyle=none;rounded=0;orthogonalLoop=1;jettySize=auto;html=1;" parent="1" source="6P1el-SRa3GFCwPbT4um-5" target="6P1el-SRa3GFCwPbT4um-24" edge="1">
          <mxGeometry relative="1" as="geometry" />
        </mxCell>
        <mxCell id="6P1el-SRa3GFCwPbT4um-5" value="生成订单" style="ellipse;whiteSpace=wrap;html=1;verticalAlign=middle;align=center;" parent="1" vertex="1">
          <mxGeometry x="290" y="230" width="110" height="70" as="geometry" />
        </mxCell>
        <mxCell id="O_uoeEamHcbB_XPuEFAN-4" style="edgeStyle=none;rounded=0;orthogonalLoop=1;jettySize=auto;html=1;entryX=0.5;entryY=0;entryDx=0;entryDy=0;fontSize=14;" edge="1" parent="1" source="6P1el-SRa3GFCwPbT4um-10" target="O_uoeEamHcbB_XPuEFAN-3">
          <mxGeometry relative="1" as="geometry" />
        </mxCell>
        <mxCell id="6P1el-SRa3GFCwPbT4um-10" value="上报地理位置" style="ellipse;whiteSpace=wrap;html=1;verticalAlign=middle;align=center;" parent="1" vertex="1">
          <mxGeometry x="540" y="130" width="110" height="70" as="geometry" />
        </mxCell>
        <mxCell id="6P1el-SRa3GFCwPbT4um-13" style="edgeStyle=none;rounded=0;orthogonalLoop=1;jettySize=auto;html=1;" parent="1" source="6P1el-SRa3GFCwPbT4um-12" target="6P1el-SRa3GFCwPbT4um-2" edge="1">
          <mxGeometry relative="1" as="geometry" />
        </mxCell>
        <mxCell id="6P1el-SRa3GFCwPbT4um-12" value="发送通知" style="ellipse;whiteSpace=wrap;html=1;verticalAlign=middle;align=center;" parent="1" vertex="1">
          <mxGeometry x="550" y="230" width="110" height="70" as="geometry" />
        </mxCell>
        <mxCell id="6P1el-SRa3GFCwPbT4um-21" style="edgeStyle=none;rounded=0;orthogonalLoop=1;jettySize=auto;html=1;" parent="1" source="6P1el-SRa3GFCwPbT4um-14" target="6P1el-SRa3GFCwPbT4um-16" edge="1">
          <mxGeometry relative="1" as="geometry" />
        </mxCell>
        <mxCell id="6P1el-SRa3GFCwPbT4um-14" value="抢单" style="ellipse;whiteSpace=wrap;html=1;verticalAlign=middle;align=center;" parent="1" vertex="1">
          <mxGeometry x="540" y="320" width="110" height="70" as="geometry" />
        </mxCell>
        <mxCell id="6P1el-SRa3GFCwPbT4um-17" style="edgeStyle=none;rounded=0;orthogonalLoop=1;jettySize=auto;html=1;entryX=0.5;entryY=0.5;entryDx=0;entryDy=0;entryPerimeter=0;" parent="1" source="6P1el-SRa3GFCwPbT4um-16" target="6P1el-SRa3GFCwPbT4um-2" edge="1">
          <mxGeometry relative="1" as="geometry" />
        </mxCell>
        <mxCell id="6P1el-SRa3GFCwPbT4um-16" value="发送订单地址" style="ellipse;whiteSpace=wrap;html=1;verticalAlign=middle;align=center;" parent="1" vertex="1">
          <mxGeometry x="540" y="420" width="110" height="70" as="geometry" />
        </mxCell>
        <mxCell id="6P1el-SRa3GFCwPbT4um-18" value="快递收件" style="ellipse;whiteSpace=wrap;html=1;verticalAlign=middle;align=center;" parent="1" vertex="1">
          <mxGeometry x="540" y="510" width="110" height="70" as="geometry" />
        </mxCell>
        <mxCell id="O_uoeEamHcbB_XPuEFAN-9" style="edgeStyle=none;rounded=0;orthogonalLoop=1;jettySize=auto;html=1;strokeColor=#000000;fontSize=14;" edge="1" parent="1" source="6P1el-SRa3GFCwPbT4um-24" target="O_uoeEamHcbB_XPuEFAN-3">
          <mxGeometry relative="1" as="geometry" />
        </mxCell>
        <mxCell id="6P1el-SRa3GFCwPbT4um-24" value="支付" style="ellipse;whiteSpace=wrap;html=1;verticalAlign=middle;align=center;" parent="1" vertex="1">
          <mxGeometry x="290" y="360" width="110" height="70" as="geometry" />
        </mxCell>
        <mxCell id="6P1el-SRa3GFCwPbT4um-28" value="快递订单管理系统" style="text;html=1;strokeColor=none;fillColor=none;align=center;verticalAlign=middle;whiteSpace=wrap;rounded=0;fontSize=14;fontStyle=1" parent="1" vertex="1">
          <mxGeometry x="240" y="70" width="130" height="20" as="geometry" />
        </mxCell>
        <mxCell id="aYJ-yftUFzY5KFX4jH7X-1" value="快递送达" style="ellipse;whiteSpace=wrap;html=1;verticalAlign=middle;align=center;" parent="1" vertex="1">
          <mxGeometry x="540" y="590" width="110" height="70" as="geometry" />
        </mxCell>
        <mxCell id="O_uoeEamHcbB_XPuEFAN-10" style="edgeStyle=none;rounded=0;orthogonalLoop=1;jettySize=auto;html=1;entryX=0;entryY=0.5;entryDx=0;entryDy=0;strokeColor=#000000;fontSize=14;" edge="1" parent="1" source="O_uoeEamHcbB_XPuEFAN-3" target="6P1el-SRa3GFCwPbT4um-12">
          <mxGeometry relative="1" as="geometry" />
        </mxCell>
        <mxCell id="O_uoeEamHcbB_XPuEFAN-3" value="计算快递员范围" style="ellipse;whiteSpace=wrap;html=1;verticalAlign=middle;align=center;" vertex="1" parent="1">
          <mxGeometry x="420" y="230" width="110" height="70" as="geometry" />
        </mxCell>
      </root>
    </mxGraphModel>
  </diagram>
  <diagram id="r9enlfgcpk305f9lM2Ts" name="下单场景的业务活动图">
    <mxGraphModel dx="1422" dy="772" grid="1" gridSize="10" guides="1" tooltips="1" connect="1" arrows="1" fold="1" page="1" pageScale="1" pageWidth="1169" pageHeight="827" math="0" shadow="0">
      <root>
        <mxCell id="LRi2jSBt0UtQcs8jCjPR-0" />
        <mxCell id="LRi2jSBt0UtQcs8jCjPR-1" parent="LRi2jSBt0UtQcs8jCjPR-0" />
        <mxCell id="wIxFTZrEyz6X14scPWf3-0" value="下单场景的业务活动图" style="swimlane;html=1;childLayout=stackLayout;resizeParent=1;resizeParentMax=0;startSize=20;fillColor=#BFFFA8;fontSize=14;align=center;" vertex="1" parent="LRi2jSBt0UtQcs8jCjPR-1">
          <mxGeometry x="150" y="50" width="860" height="710" as="geometry" />
        </mxCell>
        <mxCell id="wIxFTZrEyz6X14scPWf3-1" value="用户" style="swimlane;html=1;startSize=20;align=center;" vertex="1" parent="wIxFTZrEyz6X14scPWf3-0">
          <mxGeometry y="20" width="220" height="690" as="geometry" />
        </mxCell>
        <mxCell id="6lBB1mo4PL360lj5Evfz-0" value="下单" style="rounded=1;whiteSpace=wrap;html=1;arcSize=40;fontColor=#000000;fillColor=#ffffc0;strokeColor=#ff0000;align=center;" vertex="1" parent="wIxFTZrEyz6X14scPWf3-1">
          <mxGeometry x="50" y="90" width="120" height="40" as="geometry" />
        </mxCell>
        <mxCell id="6lBB1mo4PL360lj5Evfz-2" value="" style="ellipse;html=1;shape=startState;fillColor=#000000;strokeColor=#ff0000;fontSize=14;align=center;" vertex="1" parent="wIxFTZrEyz6X14scPWf3-1">
          <mxGeometry x="95" y="30" width="30" height="30" as="geometry" />
        </mxCell>
        <mxCell id="6lBB1mo4PL360lj5Evfz-3" value="" style="html=1;verticalAlign=bottom;endArrow=open;endSize=8;strokeColor=#ff0000;fontSize=14;entryX=0.5;entryY=0;entryDx=0;entryDy=0;" edge="1" source="6lBB1mo4PL360lj5Evfz-2" parent="wIxFTZrEyz6X14scPWf3-1" target="6lBB1mo4PL360lj5Evfz-0">
          <mxGeometry relative="1" as="geometry">
            <mxPoint x="80" y="120" as="targetPoint" />
          </mxGeometry>
        </mxCell>
        <mxCell id="6lBB1mo4PL360lj5Evfz-82" style="edgeStyle=none;rounded=0;orthogonalLoop=1;jettySize=auto;html=1;entryX=0.5;entryY=0;entryDx=0;entryDy=0;fontSize=14;" edge="1" parent="wIxFTZrEyz6X14scPWf3-1" source="6lBB1mo4PL360lj5Evfz-69" target="6lBB1mo4PL360lj5Evfz-79">
          <mxGeometry relative="1" as="geometry" />
        </mxCell>
        <mxCell id="6lBB1mo4PL360lj5Evfz-69" value="支付" style="rounded=1;whiteSpace=wrap;html=1;arcSize=40;fontColor=#000000;fillColor=#ffffc0;strokeColor=#ff0000;align=center;" vertex="1" parent="wIxFTZrEyz6X14scPWf3-1">
          <mxGeometry x="50" y="200" width="120" height="40" as="geometry" />
        </mxCell>
        <mxCell id="6lBB1mo4PL360lj5Evfz-79" value="支付成功?" style="rhombus;whiteSpace=wrap;html=1;fillColor=#ffffc0;strokeColor=#ff0000;fontSize=14;align=center;" vertex="1" parent="wIxFTZrEyz6X14scPWf3-1">
          <mxGeometry x="70" y="280" width="80" height="40" as="geometry" />
        </mxCell>
        <mxCell id="6lBB1mo4PL360lj5Evfz-81" value="No" style="html=1;align=left;verticalAlign=top;endArrow=open;endSize=8;strokeColor=#ff0000;fontSize=14;entryX=0.5;entryY=0;entryDx=0;entryDy=0;" edge="1" source="6lBB1mo4PL360lj5Evfz-79" parent="wIxFTZrEyz6X14scPWf3-1" target="6lBB1mo4PL360lj5Evfz-83">
          <mxGeometry x="-1" relative="1" as="geometry">
            <mxPoint x="90" y="470" as="targetPoint" />
          </mxGeometry>
        </mxCell>
        <mxCell id="6lBB1mo4PL360lj5Evfz-83" value="取消订单" style="rounded=1;whiteSpace=wrap;html=1;arcSize=40;fontColor=#000000;fillColor=#ffffc0;strokeColor=#ff0000;align=center;" vertex="1" parent="wIxFTZrEyz6X14scPWf3-1">
          <mxGeometry x="50" y="360" width="120" height="40" as="geometry" />
        </mxCell>
        <mxCell id="5pQNCbEpaPp_z6hLtTYi-20" value="" style="ellipse;html=1;shape=endState;fillColor=#000000;strokeColor=#ff0000;fontSize=14;align=center;" vertex="1" parent="wIxFTZrEyz6X14scPWf3-1">
          <mxGeometry x="95" y="450" width="30" height="30" as="geometry" />
        </mxCell>
        <mxCell id="6lBB1mo4PL360lj5Evfz-184" style="edgeStyle=none;rounded=0;orthogonalLoop=1;jettySize=auto;html=1;entryX=0.53;entryY=0.5;entryDx=0;entryDy=0;entryPerimeter=0;fontSize=14;strokeColor=#FF1100;" edge="1" parent="wIxFTZrEyz6X14scPWf3-0" source="6lBB1mo4PL360lj5Evfz-0" target="6lBB1mo4PL360lj5Evfz-181">
          <mxGeometry relative="1" as="geometry" />
        </mxCell>
        <mxCell id="6lBB1mo4PL360lj5Evfz-80" value="Yes" style="html=1;align=left;verticalAlign=bottom;endArrow=open;endSize=8;strokeColor=#ff0000;fontSize=14;entryX=0;entryY=0.5;entryDx=0;entryDy=0;" edge="1" source="6lBB1mo4PL360lj5Evfz-79" parent="wIxFTZrEyz6X14scPWf3-0" target="6lBB1mo4PL360lj5Evfz-186">
          <mxGeometry x="-1" relative="1" as="geometry">
            <mxPoint x="230" y="310" as="targetPoint" />
          </mxGeometry>
        </mxCell>
        <mxCell id="5pQNCbEpaPp_z6hLtTYi-1" value="" style="edgeStyle=none;rounded=0;orthogonalLoop=1;jettySize=auto;html=1;fontSize=14;strokeColor=#FF0808;" edge="1" parent="wIxFTZrEyz6X14scPWf3-0" source="6lBB1mo4PL360lj5Evfz-189" target="5pQNCbEpaPp_z6hLtTYi-0">
          <mxGeometry relative="1" as="geometry" />
        </mxCell>
        <mxCell id="6lBB1mo4PL360lj5Evfz-182" value="" style="html=1;verticalAlign=bottom;endArrow=open;endSize=8;strokeColor=#ff0000;fontSize=14;entryX=0.5;entryY=0;entryDx=0;entryDy=0;" edge="1" parent="wIxFTZrEyz6X14scPWf3-0" target="6lBB1mo4PL360lj5Evfz-69">
          <mxGeometry relative="1" as="geometry">
            <mxPoint x="270" y="250" as="targetPoint" />
            <mxPoint x="250" y="200" as="sourcePoint" />
          </mxGeometry>
        </mxCell>
        <mxCell id="6lBB1mo4PL360lj5Evfz-40" value="系统" style="swimlane;html=1;startSize=20;" vertex="1" parent="wIxFTZrEyz6X14scPWf3-0">
          <mxGeometry x="220" y="20" width="420" height="690" as="geometry" />
        </mxCell>
        <mxCell id="5pQNCbEpaPp_z6hLtTYi-5" style="edgeStyle=none;rounded=0;orthogonalLoop=1;jettySize=auto;html=1;fontSize=14;strokeColor=#FF0808;" edge="1" parent="6lBB1mo4PL360lj5Evfz-40">
          <mxGeometry relative="1" as="geometry">
            <mxPoint x="222.5" y="320" as="sourcePoint" />
            <mxPoint x="290" y="380" as="targetPoint" />
          </mxGeometry>
        </mxCell>
        <mxCell id="6lBB1mo4PL360lj5Evfz-9" value="生成订单" style="rounded=1;whiteSpace=wrap;html=1;arcSize=40;fontColor=#000000;fillColor=#ffffc0;strokeColor=#ff0000;align=center;" vertex="1" parent="6lBB1mo4PL360lj5Evfz-40">
          <mxGeometry x="160" y="280" width="120" height="40" as="geometry" />
        </mxCell>
        <mxCell id="6lBB1mo4PL360lj5Evfz-185" style="edgeStyle=none;rounded=0;orthogonalLoop=1;jettySize=auto;html=1;entryX=0.5;entryY=0;entryDx=0;entryDy=0;fontSize=14;strokeColor=#FF1C03;" edge="1" parent="6lBB1mo4PL360lj5Evfz-40" source="6lBB1mo4PL360lj5Evfz-181" target="6lBB1mo4PL360lj5Evfz-9">
          <mxGeometry relative="1" as="geometry" />
        </mxCell>
        <mxCell id="6lBB1mo4PL360lj5Evfz-181" value="" style="shape=line;html=1;strokeWidth=6;strokeColor=#ff0000;fillColor=#BFFFA8;fontSize=14;align=center;" vertex="1" parent="6lBB1mo4PL360lj5Evfz-40">
          <mxGeometry x="-100" y="170" width="200" height="10" as="geometry" />
        </mxCell>
        <mxCell id="6lBB1mo4PL360lj5Evfz-186" value="收款" style="rounded=1;whiteSpace=wrap;html=1;arcSize=40;fontColor=#000000;fillColor=#ffffc0;strokeColor=#ff0000;align=center;" vertex="1" parent="6lBB1mo4PL360lj5Evfz-40">
          <mxGeometry x="25" y="280" width="120" height="40" as="geometry" />
        </mxCell>
        <mxCell id="5pQNCbEpaPp_z6hLtTYi-0" value="计算快递员范围" style="rounded=1;whiteSpace=wrap;html=1;arcSize=40;fontColor=#000000;fillColor=#ffffc0;strokeColor=#ff0000;align=center;" vertex="1" parent="6lBB1mo4PL360lj5Evfz-40">
          <mxGeometry x="290" y="280" width="120" height="40" as="geometry" />
        </mxCell>
        <mxCell id="5pQNCbEpaPp_z6hLtTYi-2" value="发送订单通知" style="rounded=1;whiteSpace=wrap;html=1;arcSize=40;fontColor=#000000;fillColor=#ffffc0;strokeColor=#ff0000;align=center;" vertex="1" parent="6lBB1mo4PL360lj5Evfz-40">
          <mxGeometry x="230" y="440" width="120" height="40" as="geometry" />
        </mxCell>
        <mxCell id="5pQNCbEpaPp_z6hLtTYi-3" value="" style="edgeStyle=none;rounded=0;orthogonalLoop=1;jettySize=auto;html=1;fontSize=14;strokeColor=#FF0808;" edge="1" parent="6lBB1mo4PL360lj5Evfz-40" source="5pQNCbEpaPp_z6hLtTYi-0">
          <mxGeometry relative="1" as="geometry">
            <mxPoint x="293.52941176470586" y="380" as="targetPoint" />
          </mxGeometry>
        </mxCell>
        <mxCell id="5pQNCbEpaPp_z6hLtTYi-6" style="edgeStyle=none;rounded=0;orthogonalLoop=1;jettySize=auto;html=1;fontSize=14;strokeColor=#FF0808;" edge="1" parent="6lBB1mo4PL360lj5Evfz-40" target="5pQNCbEpaPp_z6hLtTYi-2">
          <mxGeometry relative="1" as="geometry">
            <mxPoint x="290" y="390" as="sourcePoint" />
          </mxGeometry>
        </mxCell>
        <mxCell id="5pQNCbEpaPp_z6hLtTYi-4" value="" style="shape=line;html=1;strokeWidth=6;strokeColor=#ff0000;fillColor=#BFFFA8;fontSize=14;align=center;" vertex="1" parent="6lBB1mo4PL360lj5Evfz-40">
          <mxGeometry x="210" y="380" width="200" height="10" as="geometry" />
        </mxCell>
        <mxCell id="5pQNCbEpaPp_z6hLtTYi-17" value="发送详细地址" style="rounded=1;whiteSpace=wrap;html=1;arcSize=40;fontColor=#000000;fillColor=#ffffc0;strokeColor=#ff0000;align=center;" vertex="1" parent="6lBB1mo4PL360lj5Evfz-40">
          <mxGeometry x="230" y="540" width="120" height="40" as="geometry" />
        </mxCell>
        <mxCell id="5pQNCbEpaPp_z6hLtTYi-8" value="" style="edgeStyle=none;rounded=0;orthogonalLoop=1;jettySize=auto;html=1;fontSize=14;strokeColor=#FF0808;" edge="1" parent="wIxFTZrEyz6X14scPWf3-0" source="5pQNCbEpaPp_z6hLtTYi-2" target="5pQNCbEpaPp_z6hLtTYi-7">
          <mxGeometry relative="1" as="geometry" />
        </mxCell>
        <mxCell id="5pQNCbEpaPp_z6hLtTYi-16" value="" style="edgeStyle=none;rounded=0;orthogonalLoop=1;jettySize=auto;html=1;fontSize=14;entryX=1;entryY=0.5;entryDx=0;entryDy=0;strokeColor=#FF0808;" edge="1" parent="wIxFTZrEyz6X14scPWf3-0" source="5pQNCbEpaPp_z6hLtTYi-12" target="5pQNCbEpaPp_z6hLtTYi-17">
          <mxGeometry relative="1" as="geometry">
            <mxPoint x="780" y="590" as="targetPoint" />
          </mxGeometry>
        </mxCell>
        <mxCell id="5pQNCbEpaPp_z6hLtTYi-19" value="Yes" style="edgeLabel;html=1;align=center;verticalAlign=middle;resizable=0;points=[];fontSize=14;" vertex="1" connectable="0" parent="5pQNCbEpaPp_z6hLtTYi-16">
          <mxGeometry x="-0.5" relative="1" as="geometry">
            <mxPoint as="offset" />
          </mxGeometry>
        </mxCell>
        <mxCell id="6lBB1mo4PL360lj5Evfz-63" value="快递员" style="swimlane;html=1;startSize=20;align=center;" vertex="1" parent="wIxFTZrEyz6X14scPWf3-0">
          <mxGeometry x="640" y="20" width="220" height="690" as="geometry" />
        </mxCell>
        <mxCell id="6lBB1mo4PL360lj5Evfz-187" value="" style="ellipse;html=1;shape=startState;fillColor=#000000;strokeColor=#ff0000;fontSize=14;align=center;" vertex="1" parent="6lBB1mo4PL360lj5Evfz-63">
          <mxGeometry x="100" y="30" width="30" height="30" as="geometry" />
        </mxCell>
        <mxCell id="6lBB1mo4PL360lj5Evfz-188" value="" style="edgeStyle=orthogonalEdgeStyle;html=1;verticalAlign=bottom;endArrow=open;endSize=8;strokeColor=#ff0000;fontSize=14;entryX=0.5;entryY=0;entryDx=0;entryDy=0;" edge="1" source="6lBB1mo4PL360lj5Evfz-187" parent="6lBB1mo4PL360lj5Evfz-63" target="6lBB1mo4PL360lj5Evfz-189">
          <mxGeometry relative="1" as="geometry">
            <mxPoint x="200" y="130" as="targetPoint" />
          </mxGeometry>
        </mxCell>
        <mxCell id="6lBB1mo4PL360lj5Evfz-189" value="上报地理位置" style="rounded=1;whiteSpace=wrap;html=1;arcSize=40;fontColor=#000000;fillColor=#ffffc0;strokeColor=#ff0000;align=center;" vertex="1" parent="6lBB1mo4PL360lj5Evfz-63">
          <mxGeometry x="55" y="90" width="120" height="40" as="geometry" />
        </mxCell>
        <mxCell id="5pQNCbEpaPp_z6hLtTYi-7" value="抢单" style="rounded=1;whiteSpace=wrap;html=1;arcSize=40;fontColor=#000000;fillColor=#ffffc0;strokeColor=#ff0000;align=center;" vertex="1" parent="6lBB1mo4PL360lj5Evfz-63">
          <mxGeometry x="55" y="440" width="120" height="40" as="geometry" />
        </mxCell>
        <mxCell id="5pQNCbEpaPp_z6hLtTYi-12" value="抢单成功?" style="rhombus;whiteSpace=wrap;html=1;fillColor=#ffffc0;strokeColor=#ff0000;fontSize=14;align=center;" vertex="1" parent="6lBB1mo4PL360lj5Evfz-63">
          <mxGeometry x="75" y="540" width="80" height="40" as="geometry" />
        </mxCell>
        <mxCell id="5pQNCbEpaPp_z6hLtTYi-13" value="no" style="html=1;align=left;verticalAlign=bottom;endArrow=open;endSize=8;strokeColor=#ff0000;fontSize=14;entryX=0;entryY=0.5;entryDx=0;entryDy=0;" edge="1" source="5pQNCbEpaPp_z6hLtTYi-12" parent="6lBB1mo4PL360lj5Evfz-63" target="5pQNCbEpaPp_z6hLtTYi-25">
          <mxGeometry x="-1" relative="1" as="geometry">
            <mxPoint x="210" y="570" as="targetPoint" />
          </mxGeometry>
        </mxCell>
        <mxCell id="5pQNCbEpaPp_z6hLtTYi-11" value="" style="edgeStyle=none;rounded=0;orthogonalLoop=1;jettySize=auto;html=1;fontSize=14;entryX=0.5;entryY=0;entryDx=0;entryDy=0;strokeColor=#FF0808;" edge="1" parent="6lBB1mo4PL360lj5Evfz-63" source="5pQNCbEpaPp_z6hLtTYi-7" target="5pQNCbEpaPp_z6hLtTYi-12">
          <mxGeometry relative="1" as="geometry">
            <mxPoint x="110" y="560" as="targetPoint" />
          </mxGeometry>
        </mxCell>
        <mxCell id="5pQNCbEpaPp_z6hLtTYi-25" value="" style="ellipse;html=1;shape=endState;fillColor=#000000;strokeColor=#ff0000;fontSize=14;align=center;" vertex="1" parent="6lBB1mo4PL360lj5Evfz-63">
          <mxGeometry x="175" y="545" width="30" height="30" as="geometry" />
        </mxCell>
        <mxCell id="5pQNCbEpaPp_z6hLtTYi-27" value="收件" style="rounded=1;whiteSpace=wrap;html=1;arcSize=40;fontColor=#000000;fillColor=#ffffc0;strokeColor=#ff0000;align=center;" vertex="1" parent="6lBB1mo4PL360lj5Evfz-63">
          <mxGeometry x="55" y="610" width="120" height="40" as="geometry" />
        </mxCell>
        <mxCell id="5pQNCbEpaPp_z6hLtTYi-26" style="edgeStyle=none;rounded=0;orthogonalLoop=1;jettySize=auto;html=1;fontSize=14;entryX=0;entryY=0.5;entryDx=0;entryDy=0;strokeColor=#FF0808;" edge="1" parent="wIxFTZrEyz6X14scPWf3-0" source="5pQNCbEpaPp_z6hLtTYi-17" target="5pQNCbEpaPp_z6hLtTYi-27">
          <mxGeometry relative="1" as="geometry">
            <mxPoint x="890" y="640" as="targetPoint" />
          </mxGeometry>
        </mxCell>
        <mxCell id="5pQNCbEpaPp_z6hLtTYi-22" value="" style="edgeStyle=none;rounded=0;orthogonalLoop=1;jettySize=auto;html=1;strokeColor=#000000;fontSize=14;" edge="1" parent="LRi2jSBt0UtQcs8jCjPR-1" source="6lBB1mo4PL360lj5Evfz-83">
          <mxGeometry relative="1" as="geometry">
            <mxPoint x="260" y="520" as="targetPoint" />
          </mxGeometry>
        </mxCell>
      </root>
    </mxGraphModel>
  </diagram>
  <diagram id="PSdzthmYEAV_Do2nsR_i" name="部署图">
    <mxGraphModel dx="1422" dy="806" grid="1" gridSize="10" guides="1" tooltips="1" connect="1" arrows="1" fold="1" page="1" pageScale="1" pageWidth="1169" pageHeight="827" math="0" shadow="0">
      <root>
        <mxCell id="Ffhjdda2uhFjlYS0oNh5-0" />
        <mxCell id="Ffhjdda2uhFjlYS0oNh5-1" parent="Ffhjdda2uhFjlYS0oNh5-0" />
        <mxCell id="Ffhjdda2uhFjlYS0oNh5-31" value="" style="rounded=0;whiteSpace=wrap;html=1;fontSize=14;align=center;" vertex="1" parent="Ffhjdda2uhFjlYS0oNh5-1">
          <mxGeometry x="230" y="199" width="580" height="580" as="geometry" />
        </mxCell>
        <mxCell id="Ffhjdda2uhFjlYS0oNh5-15" style="edgeStyle=none;rounded=0;orthogonalLoop=1;jettySize=auto;html=1;fontSize=14;" edge="1" parent="Ffhjdda2uhFjlYS0oNh5-1" source="Ffhjdda2uhFjlYS0oNh5-5" target="Ffhjdda2uhFjlYS0oNh5-11">
          <mxGeometry relative="1" as="geometry" />
        </mxCell>
        <mxCell id="Ffhjdda2uhFjlYS0oNh5-16" style="edgeStyle=none;rounded=0;orthogonalLoop=1;jettySize=auto;html=1;fontSize=14;" edge="1" parent="Ffhjdda2uhFjlYS0oNh5-1" source="Ffhjdda2uhFjlYS0oNh5-5" target="Ffhjdda2uhFjlYS0oNh5-12">
          <mxGeometry relative="1" as="geometry" />
        </mxCell>
        <mxCell id="Ffhjdda2uhFjlYS0oNh5-17" style="edgeStyle=none;rounded=0;orthogonalLoop=1;jettySize=auto;html=1;fontSize=14;" edge="1" parent="Ffhjdda2uhFjlYS0oNh5-1" source="Ffhjdda2uhFjlYS0oNh5-5" target="Ffhjdda2uhFjlYS0oNh5-13">
          <mxGeometry relative="1" as="geometry" />
        </mxCell>
        <mxCell id="Ffhjdda2uhFjlYS0oNh5-5" value="微服务网关" style="aspect=fixed;html=1;points=[];align=center;image;fontSize=12;image=img/lib/mscae/Application_Gateway.svg;fillColor=#BFFFA8;" vertex="1" parent="Ffhjdda2uhFjlYS0oNh5-1">
          <mxGeometry x="360" y="319" width="50" height="50" as="geometry" />
        </mxCell>
        <mxCell id="Ffhjdda2uhFjlYS0oNh5-10" style="edgeStyle=none;rounded=0;orthogonalLoop=1;jettySize=auto;html=1;fontSize=14;" edge="1" parent="Ffhjdda2uhFjlYS0oNh5-1" source="Ffhjdda2uhFjlYS0oNh5-8" target="Ffhjdda2uhFjlYS0oNh5-9">
          <mxGeometry relative="1" as="geometry" />
        </mxCell>
        <mxCell id="Ffhjdda2uhFjlYS0oNh5-8" value="用户" style="aspect=fixed;html=1;points=[];align=center;image;fontSize=12;image=img/lib/mscae/Devices_Groups.svg;fillColor=#BFFFA8;" vertex="1" parent="Ffhjdda2uhFjlYS0oNh5-1">
          <mxGeometry x="360" y="70" width="50" height="50" as="geometry" />
        </mxCell>
        <mxCell id="Ffhjdda2uhFjlYS0oNh5-14" value="" style="edgeStyle=none;rounded=0;orthogonalLoop=1;jettySize=auto;html=1;fontSize=14;" edge="1" parent="Ffhjdda2uhFjlYS0oNh5-1" source="Ffhjdda2uhFjlYS0oNh5-9" target="Ffhjdda2uhFjlYS0oNh5-5">
          <mxGeometry relative="1" as="geometry" />
        </mxCell>
        <mxCell id="Ffhjdda2uhFjlYS0oNh5-9" value="Nginx负载均衡" style="aspect=fixed;html=1;points=[];align=center;image;fontSize=12;image=img/lib/mscae/Load_Balancer_feature.svg;fillColor=#BFFFA8;" vertex="1" parent="Ffhjdda2uhFjlYS0oNh5-1">
          <mxGeometry x="360" y="229" width="50" height="50" as="geometry" />
        </mxCell>
        <mxCell id="Ffhjdda2uhFjlYS0oNh5-36" style="edgeStyle=none;rounded=0;orthogonalLoop=1;jettySize=auto;html=1;entryX=0.25;entryY=0;entryDx=0;entryDy=0;strokeColor=#000000;fontSize=14;" edge="1" parent="Ffhjdda2uhFjlYS0oNh5-1" source="Ffhjdda2uhFjlYS0oNh5-11" target="Ffhjdda2uhFjlYS0oNh5-32">
          <mxGeometry relative="1" as="geometry" />
        </mxCell>
        <mxCell id="Ffhjdda2uhFjlYS0oNh5-11" value="支付服务" style="aspect=fixed;html=1;points=[];align=center;image;fontSize=12;image=img/lib/mscae/ResourceGroup.svg;fillColor=#BFFFA8;" vertex="1" parent="Ffhjdda2uhFjlYS0oNh5-1">
          <mxGeometry x="265" y="474" width="50" height="40" as="geometry" />
        </mxCell>
        <mxCell id="Ffhjdda2uhFjlYS0oNh5-37" style="edgeStyle=none;rounded=0;orthogonalLoop=1;jettySize=auto;html=1;strokeColor=#000000;fontSize=14;" edge="1" parent="Ffhjdda2uhFjlYS0oNh5-1" source="Ffhjdda2uhFjlYS0oNh5-12" target="Ffhjdda2uhFjlYS0oNh5-32">
          <mxGeometry relative="1" as="geometry" />
        </mxCell>
        <mxCell id="Ffhjdda2uhFjlYS0oNh5-12" value="订单管理服务" style="aspect=fixed;html=1;points=[];align=center;image;fontSize=12;image=img/lib/mscae/ResourceGroup.svg;fillColor=#BFFFA8;" vertex="1" parent="Ffhjdda2uhFjlYS0oNh5-1">
          <mxGeometry x="360" y="469" width="50" height="40" as="geometry" />
        </mxCell>
        <mxCell id="Ffhjdda2uhFjlYS0oNh5-23" style="edgeStyle=none;rounded=0;orthogonalLoop=1;jettySize=auto;html=1;fontSize=14;" edge="1" parent="Ffhjdda2uhFjlYS0oNh5-1" source="Ffhjdda2uhFjlYS0oNh5-13" target="Ffhjdda2uhFjlYS0oNh5-22">
          <mxGeometry relative="1" as="geometry" />
        </mxCell>
        <mxCell id="Ffhjdda2uhFjlYS0oNh5-29" style="edgeStyle=none;rounded=0;orthogonalLoop=1;jettySize=auto;html=1;strokeColor=#000000;fontSize=14;" edge="1" parent="Ffhjdda2uhFjlYS0oNh5-1" source="Ffhjdda2uhFjlYS0oNh5-13" target="Ffhjdda2uhFjlYS0oNh5-21">
          <mxGeometry relative="1" as="geometry" />
        </mxCell>
        <mxCell id="Ffhjdda2uhFjlYS0oNh5-38" style="edgeStyle=none;rounded=0;orthogonalLoop=1;jettySize=auto;html=1;entryX=0.75;entryY=0;entryDx=0;entryDy=0;strokeColor=#000000;fontSize=14;" edge="1" parent="Ffhjdda2uhFjlYS0oNh5-1" source="Ffhjdda2uhFjlYS0oNh5-13" target="Ffhjdda2uhFjlYS0oNh5-32">
          <mxGeometry relative="1" as="geometry" />
        </mxCell>
        <mxCell id="Ffhjdda2uhFjlYS0oNh5-13" value="派单服务" style="aspect=fixed;html=1;points=[];align=center;image;fontSize=12;image=img/lib/mscae/ResourceGroup.svg;fillColor=#BFFFA8;" vertex="1" parent="Ffhjdda2uhFjlYS0oNh5-1">
          <mxGeometry x="490" y="469" width="50" height="40" as="geometry" />
        </mxCell>
        <mxCell id="Ffhjdda2uhFjlYS0oNh5-20" value="" style="edgeStyle=none;rounded=0;orthogonalLoop=1;jettySize=auto;html=1;strokeColor=#FF0808;fontSize=14;" edge="1" parent="Ffhjdda2uhFjlYS0oNh5-1" source="Ffhjdda2uhFjlYS0oNh5-18" target="Ffhjdda2uhFjlYS0oNh5-19">
          <mxGeometry relative="1" as="geometry" />
        </mxCell>
        <mxCell id="Ffhjdda2uhFjlYS0oNh5-18" value="MySQL主服务器" style="aspect=fixed;html=1;points=[];align=center;image;fontSize=12;image=img/lib/mscae/Azure_Database_for_MySQL_servers.svg;fillColor=#BFFFA8;" vertex="1" parent="Ffhjdda2uhFjlYS0oNh5-1">
          <mxGeometry x="312" y="649" width="38" height="50" as="geometry" />
        </mxCell>
        <mxCell id="Ffhjdda2uhFjlYS0oNh5-19" value="MySQL从服务器" style="aspect=fixed;html=1;points=[];align=center;image;fontSize=12;image=img/lib/mscae/Azure_Database_for_MySQL_servers.svg;fillColor=#BFFFA8;" vertex="1" parent="Ffhjdda2uhFjlYS0oNh5-1">
          <mxGeometry x="442" y="649" width="38" height="50" as="geometry" />
        </mxCell>
        <mxCell id="Ffhjdda2uhFjlYS0oNh5-21" value="Redis缓存服务器" style="aspect=fixed;html=1;points=[];align=center;image;fontSize=12;image=img/lib/mscae/Azure_Cache_for_Redis.svg;fillColor=#BFFFA8;" vertex="1" parent="Ffhjdda2uhFjlYS0oNh5-1">
          <mxGeometry x="670" y="649" width="50" height="50" as="geometry" />
        </mxCell>
        <mxCell id="Ffhjdda2uhFjlYS0oNh5-24" style="edgeStyle=none;rounded=0;orthogonalLoop=1;jettySize=auto;html=1;strokeColor=#FF0808;fontSize=14;dashed=1;" edge="1" parent="Ffhjdda2uhFjlYS0oNh5-1" source="Ffhjdda2uhFjlYS0oNh5-22" target="Ffhjdda2uhFjlYS0oNh5-25">
          <mxGeometry relative="1" as="geometry">
            <mxPoint x="682.493670886076" y="109" as="targetPoint" />
          </mxGeometry>
        </mxCell>
        <mxCell id="Ffhjdda2uhFjlYS0oNh5-22" value="Active MQ消息服务器" style="aspect=fixed;html=1;points=[];align=center;image;fontSize=12;image=img/lib/mscae/Event_Grid.svg;fillColor=#BFFFA8;" vertex="1" parent="Ffhjdda2uhFjlYS0oNh5-1">
          <mxGeometry x="660" y="464" width="50" height="50" as="geometry" />
        </mxCell>
        <mxCell id="Ffhjdda2uhFjlYS0oNh5-27" style="edgeStyle=none;rounded=0;orthogonalLoop=1;jettySize=auto;html=1;entryX=0.74;entryY=-0.06;entryDx=0;entryDy=0;entryPerimeter=0;fontSize=14;" edge="1" parent="Ffhjdda2uhFjlYS0oNh5-1" source="Ffhjdda2uhFjlYS0oNh5-25" target="Ffhjdda2uhFjlYS0oNh5-9">
          <mxGeometry relative="1" as="geometry" />
        </mxCell>
        <mxCell id="Ffhjdda2uhFjlYS0oNh5-25" value="快递员" style="aspect=fixed;html=1;points=[];align=center;image;fontSize=12;image=img/lib/mscae/App_Service_Mobile_App.svg;fillColor=#BFFFA8;" vertex="1" parent="Ffhjdda2uhFjlYS0oNh5-1">
          <mxGeometry x="660" y="70" width="34" height="50" as="geometry" />
        </mxCell>
        <mxCell id="Ffhjdda2uhFjlYS0oNh5-28" value="" style="edgeStyle=none;rounded=0;orthogonalLoop=1;jettySize=auto;html=1;fontSize=14;" edge="1" parent="Ffhjdda2uhFjlYS0oNh5-1">
          <mxGeometry relative="1" as="geometry">
            <mxPoint x="350" y="673.5" as="sourcePoint" />
            <mxPoint x="442" y="673.5" as="targetPoint" />
          </mxGeometry>
        </mxCell>
        <mxCell id="Ffhjdda2uhFjlYS0oNh5-39" value="" style="edgeStyle=none;rounded=0;orthogonalLoop=1;jettySize=auto;html=1;strokeColor=#000000;fontSize=14;" edge="1" parent="Ffhjdda2uhFjlYS0oNh5-1" source="Ffhjdda2uhFjlYS0oNh5-32" target="Ffhjdda2uhFjlYS0oNh5-12">
          <mxGeometry relative="1" as="geometry" />
        </mxCell>
        <mxCell id="Ffhjdda2uhFjlYS0oNh5-32" value="" style="rounded=0;whiteSpace=wrap;html=1;fontSize=14;align=center;fillColor=none;dashed=1;" vertex="1" parent="Ffhjdda2uhFjlYS0oNh5-1">
          <mxGeometry x="237.5" y="610" width="295" height="140" as="geometry" />
        </mxCell>
        <mxCell id="Ffhjdda2uhFjlYS0oNh5-33" value="MySQL数据库" style="text;html=1;strokeColor=none;fillColor=none;align=center;verticalAlign=middle;whiteSpace=wrap;rounded=0;dashed=1;fontSize=14;" vertex="1" parent="Ffhjdda2uhFjlYS0oNh5-1">
          <mxGeometry x="272" y="619" width="98" height="20" as="geometry" />
        </mxCell>
      </root>
    </mxGraphModel>
  </diagram>
  <diagram id="mc_MWLTt0_vXf6NZOxYl" name="下单抢单场景序列图">
    <mxGraphModel dx="1422" dy="806" grid="1" gridSize="10" guides="1" tooltips="1" connect="1" arrows="1" fold="1" page="1" pageScale="1" pageWidth="1169" pageHeight="827" math="0" shadow="0">
      <root>
        <mxCell id="SaJ00nuI3zCXwTViar2f-0" />
        <mxCell id="SaJ00nuI3zCXwTViar2f-1" parent="SaJ00nuI3zCXwTViar2f-0" />
        <mxCell id="yd7pohFZ6n4gRY5iTDO3-66" value="" style="rounded=0;whiteSpace=wrap;html=1;fontSize=14;align=center;dashed=1;" vertex="1" parent="SaJ00nuI3zCXwTViar2f-1">
          <mxGeometry x="140" y="10" width="1000" height="770" as="geometry" />
        </mxCell>
        <mxCell id="SaJ00nuI3zCXwTViar2f-2" value="支付服务" style="shape=umlLifeline;perimeter=lifelinePerimeter;whiteSpace=wrap;html=1;container=1;collapsible=0;recursiveResize=0;outlineConnect=0;strokeColor=#000000;fillColor=none;fontSize=14;align=center;" vertex="1" parent="SaJ00nuI3zCXwTViar2f-1">
          <mxGeometry x="400" y="60" width="100" height="680" as="geometry" />
        </mxCell>
        <mxCell id="yd7pohFZ6n4gRY5iTDO3-15" value="" style="html=1;points=[];perimeter=orthogonalPerimeter;" vertex="1" parent="SaJ00nuI3zCXwTViar2f-2">
          <mxGeometry x="45" y="160" width="10" height="70" as="geometry" />
        </mxCell>
        <mxCell id="yd7pohFZ6n4gRY5iTDO3-18" style="edgeStyle=none;rounded=0;orthogonalLoop=1;jettySize=auto;html=1;strokeColor=#000000;fontSize=14;" edge="1" parent="SaJ00nuI3zCXwTViar2f-2" source="yd7pohFZ6n4gRY5iTDO3-15" target="yd7pohFZ6n4gRY5iTDO3-15">
          <mxGeometry relative="1" as="geometry">
            <Array as="points">
              <mxPoint x="70" y="220" />
            </Array>
          </mxGeometry>
        </mxCell>
        <mxCell id="SaJ00nuI3zCXwTViar2f-4" value="订单管理服务" style="shape=umlLifeline;perimeter=lifelinePerimeter;whiteSpace=wrap;html=1;container=1;collapsible=0;recursiveResize=0;outlineConnect=0;strokeColor=#000000;fillColor=none;fontSize=14;align=center;" vertex="1" parent="SaJ00nuI3zCXwTViar2f-1">
          <mxGeometry x="220" y="60" width="100" height="680" as="geometry" />
        </mxCell>
        <mxCell id="SaJ00nuI3zCXwTViar2f-5" value="" style="html=1;points=[];perimeter=orthogonalPerimeter;" vertex="1" parent="SaJ00nuI3zCXwTViar2f-4">
          <mxGeometry x="45" y="80" width="10" height="80" as="geometry" />
        </mxCell>
        <mxCell id="yd7pohFZ6n4gRY5iTDO3-5" style="edgeStyle=none;rounded=0;orthogonalLoop=1;jettySize=auto;html=1;strokeColor=#000000;fontSize=14;" edge="1" parent="SaJ00nuI3zCXwTViar2f-4" source="SaJ00nuI3zCXwTViar2f-5" target="SaJ00nuI3zCXwTViar2f-5">
          <mxGeometry relative="1" as="geometry">
            <Array as="points">
              <mxPoint x="70" y="90" />
            </Array>
          </mxGeometry>
        </mxCell>
        <mxCell id="yd7pohFZ6n4gRY5iTDO3-0" value="派单服务" style="shape=umlLifeline;perimeter=lifelinePerimeter;whiteSpace=wrap;html=1;container=1;collapsible=0;recursiveResize=0;outlineConnect=0;strokeColor=#000000;fillColor=none;fontSize=14;align=center;" vertex="1" parent="SaJ00nuI3zCXwTViar2f-1">
          <mxGeometry x="600" y="60" width="100" height="680" as="geometry" />
        </mxCell>
        <mxCell id="yd7pohFZ6n4gRY5iTDO3-24" value="" style="html=1;points=[];perimeter=orthogonalPerimeter;" vertex="1" parent="yd7pohFZ6n4gRY5iTDO3-0">
          <mxGeometry x="45" y="230" width="10" height="140" as="geometry" />
        </mxCell>
        <mxCell id="yd7pohFZ6n4gRY5iTDO3-37" style="edgeStyle=none;rounded=0;orthogonalLoop=1;jettySize=auto;html=1;entryX=1;entryY=0.943;entryDx=0;entryDy=0;entryPerimeter=0;strokeColor=#000000;fontSize=14;" edge="1" parent="yd7pohFZ6n4gRY5iTDO3-0" source="yd7pohFZ6n4gRY5iTDO3-24" target="yd7pohFZ6n4gRY5iTDO3-24">
          <mxGeometry relative="1" as="geometry" />
        </mxCell>
        <mxCell id="yd7pohFZ6n4gRY5iTDO3-47" value="计算有效范围快递员" style="edgeStyle=none;rounded=0;orthogonalLoop=1;jettySize=auto;html=1;strokeColor=#000000;fontSize=14;" edge="1" parent="yd7pohFZ6n4gRY5iTDO3-0" source="yd7pohFZ6n4gRY5iTDO3-24" target="yd7pohFZ6n4gRY5iTDO3-24">
          <mxGeometry x="0.125" y="70" relative="1" as="geometry">
            <Array as="points">
              <mxPoint x="70" y="300" />
              <mxPoint x="70" y="330" />
              <mxPoint x="70" y="350" />
            </Array>
            <mxPoint as="offset" />
          </mxGeometry>
        </mxCell>
        <mxCell id="yd7pohFZ6n4gRY5iTDO3-54" value="" style="html=1;points=[];perimeter=orthogonalPerimeter;" vertex="1" parent="yd7pohFZ6n4gRY5iTDO3-0">
          <mxGeometry x="45" y="410" width="10" height="90" as="geometry" />
        </mxCell>
        <mxCell id="yd7pohFZ6n4gRY5iTDO3-60" value="确定抢单成功快递员" style="edgeStyle=none;rounded=0;orthogonalLoop=1;jettySize=auto;html=1;strokeColor=#000000;fontSize=14;" edge="1" parent="yd7pohFZ6n4gRY5iTDO3-0" source="yd7pohFZ6n4gRY5iTDO3-54" target="yd7pohFZ6n4gRY5iTDO3-54">
          <mxGeometry y="70" relative="1" as="geometry">
            <Array as="points">
              <mxPoint x="70" y="430" />
            </Array>
            <mxPoint as="offset" />
          </mxGeometry>
        </mxCell>
        <mxCell id="yd7pohFZ6n4gRY5iTDO3-3" style="edgeStyle=none;rounded=0;orthogonalLoop=1;jettySize=auto;html=1;strokeColor=#000000;fontSize=14;" edge="1" parent="SaJ00nuI3zCXwTViar2f-1" source="yd7pohFZ6n4gRY5iTDO3-2">
          <mxGeometry relative="1" as="geometry">
            <mxPoint x="269.5" y="140" as="targetPoint" />
          </mxGeometry>
        </mxCell>
        <mxCell id="yd7pohFZ6n4gRY5iTDO3-4" value="下单" style="edgeLabel;html=1;align=center;verticalAlign=middle;resizable=0;points=[];fontSize=14;" vertex="1" connectable="0" parent="yd7pohFZ6n4gRY5iTDO3-3">
          <mxGeometry x="-0.2089" relative="1" as="geometry">
            <mxPoint as="offset" />
          </mxGeometry>
        </mxCell>
        <mxCell id="yd7pohFZ6n4gRY5iTDO3-2" value="用户" style="shape=umlActor;verticalLabelPosition=bottom;verticalAlign=top;html=1;strokeColor=#000000;fillColor=none;fontSize=14;align=center;" vertex="1" parent="SaJ00nuI3zCXwTViar2f-1">
          <mxGeometry x="60" y="110" width="30" height="60" as="geometry" />
        </mxCell>
        <mxCell id="yd7pohFZ6n4gRY5iTDO3-10" value="生成订单" style="text;html=1;align=center;verticalAlign=middle;resizable=0;points=[];autosize=1;fontSize=14;" vertex="1" parent="SaJ00nuI3zCXwTViar2f-1">
          <mxGeometry x="290" y="150" width="70" height="20" as="geometry" />
        </mxCell>
        <mxCell id="yd7pohFZ6n4gRY5iTDO3-14" value="付款" style="edgeStyle=none;rounded=0;orthogonalLoop=1;jettySize=auto;html=1;strokeColor=#000000;fontSize=14;exitX=0.6;exitY=1;exitDx=0;exitDy=0;exitPerimeter=0;" edge="1" parent="SaJ00nuI3zCXwTViar2f-1" source="SaJ00nuI3zCXwTViar2f-5">
          <mxGeometry relative="1" as="geometry">
            <mxPoint x="450" y="220" as="targetPoint" />
          </mxGeometry>
        </mxCell>
        <mxCell id="yd7pohFZ6n4gRY5iTDO3-19" value="完成付款" style="text;html=1;align=center;verticalAlign=middle;resizable=0;points=[];autosize=1;fontSize=14;" vertex="1" parent="SaJ00nuI3zCXwTViar2f-1">
          <mxGeometry x="470" y="240" width="70" height="20" as="geometry" />
        </mxCell>
        <mxCell id="yd7pohFZ6n4gRY5iTDO3-23" style="edgeStyle=none;rounded=0;orthogonalLoop=1;jettySize=auto;html=1;strokeColor=#000000;fontSize=14;" edge="1" parent="SaJ00nuI3zCXwTViar2f-1" source="yd7pohFZ6n4gRY5iTDO3-15" target="yd7pohFZ6n4gRY5iTDO3-0">
          <mxGeometry relative="1" as="geometry">
            <Array as="points">
              <mxPoint x="610" y="290" />
            </Array>
          </mxGeometry>
        </mxCell>
        <mxCell id="yd7pohFZ6n4gRY5iTDO3-40" value="缓存服务器" style="shape=umlLifeline;perimeter=lifelinePerimeter;whiteSpace=wrap;html=1;container=1;collapsible=0;recursiveResize=0;outlineConnect=0;strokeColor=#000000;fillColor=none;fontSize=14;align=center;" vertex="1" parent="SaJ00nuI3zCXwTViar2f-1">
          <mxGeometry x="760" y="60" width="100" height="680" as="geometry" />
        </mxCell>
        <mxCell id="yd7pohFZ6n4gRY5iTDO3-42" value="" style="html=1;points=[];perimeter=orthogonalPerimeter;" vertex="1" parent="yd7pohFZ6n4gRY5iTDO3-40">
          <mxGeometry x="45" y="235" width="10" height="45" as="geometry" />
        </mxCell>
        <mxCell id="yd7pohFZ6n4gRY5iTDO3-41" value="消息服务器" style="shape=umlLifeline;perimeter=lifelinePerimeter;whiteSpace=wrap;html=1;container=1;collapsible=0;recursiveResize=0;outlineConnect=0;strokeColor=#000000;fillColor=none;fontSize=14;align=center;" vertex="1" parent="SaJ00nuI3zCXwTViar2f-1">
          <mxGeometry x="910" y="60" width="100" height="680" as="geometry" />
        </mxCell>
        <mxCell id="yd7pohFZ6n4gRY5iTDO3-52" style="edgeStyle=none;rounded=0;orthogonalLoop=1;jettySize=auto;html=1;strokeColor=#000000;fontSize=14;" edge="1" parent="yd7pohFZ6n4gRY5iTDO3-41" source="yd7pohFZ6n4gRY5iTDO3-50" target="yd7pohFZ6n4gRY5iTDO3-41">
          <mxGeometry relative="1" as="geometry" />
        </mxCell>
        <mxCell id="yd7pohFZ6n4gRY5iTDO3-50" value="" style="html=1;points=[];perimeter=orthogonalPerimeter;" vertex="1" parent="yd7pohFZ6n4gRY5iTDO3-41">
          <mxGeometry x="45" y="370" width="10" height="70" as="geometry" />
        </mxCell>
        <mxCell id="yd7pohFZ6n4gRY5iTDO3-53" value="群发接单通知" style="edgeStyle=none;rounded=0;orthogonalLoop=1;jettySize=auto;html=1;strokeColor=#000000;fontSize=14;" edge="1" parent="yd7pohFZ6n4gRY5iTDO3-41" source="yd7pohFZ6n4gRY5iTDO3-50" target="yd7pohFZ6n4gRY5iTDO3-50">
          <mxGeometry relative="1" as="geometry">
            <Array as="points">
              <mxPoint x="70" y="380" />
            </Array>
          </mxGeometry>
        </mxCell>
        <mxCell id="yd7pohFZ6n4gRY5iTDO3-61" value="" style="html=1;points=[];perimeter=orthogonalPerimeter;" vertex="1" parent="yd7pohFZ6n4gRY5iTDO3-41">
          <mxGeometry x="45" y="500" width="10" height="70" as="geometry" />
        </mxCell>
        <mxCell id="yd7pohFZ6n4gRY5iTDO3-64" value="发送地址给快递员" style="edgeStyle=none;rounded=0;orthogonalLoop=1;jettySize=auto;html=1;strokeColor=#000000;fontSize=14;" edge="1" parent="yd7pohFZ6n4gRY5iTDO3-41" source="yd7pohFZ6n4gRY5iTDO3-61" target="yd7pohFZ6n4gRY5iTDO3-61">
          <mxGeometry x="-0.125" y="60" relative="1" as="geometry">
            <Array as="points">
              <mxPoint x="70" y="510" />
            </Array>
            <mxPoint as="offset" />
          </mxGeometry>
        </mxCell>
        <mxCell id="yd7pohFZ6n4gRY5iTDO3-43" style="edgeStyle=none;rounded=0;orthogonalLoop=1;jettySize=auto;html=1;entryX=0.4;entryY=0.014;entryDx=0;entryDy=0;entryPerimeter=0;strokeColor=#000000;fontSize=14;" edge="1" parent="SaJ00nuI3zCXwTViar2f-1" source="yd7pohFZ6n4gRY5iTDO3-24" target="yd7pohFZ6n4gRY5iTDO3-42">
          <mxGeometry relative="1" as="geometry" />
        </mxCell>
        <mxCell id="yd7pohFZ6n4gRY5iTDO3-44" value="获取快递员位置" style="edgeLabel;html=1;align=center;verticalAlign=middle;resizable=0;points=[];fontSize=14;" vertex="1" connectable="0" parent="yd7pohFZ6n4gRY5iTDO3-43">
          <mxGeometry x="-0.1429" relative="1" as="geometry">
            <mxPoint as="offset" />
          </mxGeometry>
        </mxCell>
        <mxCell id="yd7pohFZ6n4gRY5iTDO3-46" value="" style="edgeStyle=none;rounded=0;orthogonalLoop=1;jettySize=auto;html=1;strokeColor=#000000;fontSize=14;" edge="1" parent="SaJ00nuI3zCXwTViar2f-1" source="yd7pohFZ6n4gRY5iTDO3-42" target="yd7pohFZ6n4gRY5iTDO3-24">
          <mxGeometry relative="1" as="geometry">
            <mxPoint x="725" y="317.5" as="targetPoint" />
            <Array as="points">
              <mxPoint x="810" y="340" />
            </Array>
          </mxGeometry>
        </mxCell>
        <mxCell id="yd7pohFZ6n4gRY5iTDO3-49" style="edgeStyle=none;rounded=0;orthogonalLoop=1;jettySize=auto;html=1;strokeColor=#000000;fontSize=14;" edge="1" parent="SaJ00nuI3zCXwTViar2f-1" source="yd7pohFZ6n4gRY5iTDO3-24" target="yd7pohFZ6n4gRY5iTDO3-41">
          <mxGeometry relative="1" as="geometry">
            <Array as="points">
              <mxPoint x="750" y="430" />
            </Array>
          </mxGeometry>
        </mxCell>
        <mxCell id="yd7pohFZ6n4gRY5iTDO3-51" value="发送通知" style="edgeLabel;html=1;align=center;verticalAlign=middle;resizable=0;points=[];fontSize=14;" vertex="1" connectable="0" parent="yd7pohFZ6n4gRY5iTDO3-49">
          <mxGeometry x="0.1297" y="2" relative="1" as="geometry">
            <mxPoint as="offset" />
          </mxGeometry>
        </mxCell>
        <mxCell id="yd7pohFZ6n4gRY5iTDO3-58" style="edgeStyle=none;rounded=0;orthogonalLoop=1;jettySize=auto;html=1;strokeColor=#000000;fontSize=14;" edge="1" parent="SaJ00nuI3zCXwTViar2f-1" source="yd7pohFZ6n4gRY5iTDO3-55" target="yd7pohFZ6n4gRY5iTDO3-0">
          <mxGeometry relative="1" as="geometry" />
        </mxCell>
        <mxCell id="yd7pohFZ6n4gRY5iTDO3-59" value="抢单" style="edgeLabel;html=1;align=center;verticalAlign=middle;resizable=0;points=[];fontSize=14;" vertex="1" connectable="0" parent="yd7pohFZ6n4gRY5iTDO3-58">
          <mxGeometry x="0.0903" y="1" relative="1" as="geometry">
            <mxPoint as="offset" />
          </mxGeometry>
        </mxCell>
        <mxCell id="yd7pohFZ6n4gRY5iTDO3-55" value="快递员" style="shape=umlActor;verticalLabelPosition=bottom;verticalAlign=top;html=1;strokeColor=#000000;fillColor=none;fontSize=14;align=center;" vertex="1" parent="SaJ00nuI3zCXwTViar2f-1">
          <mxGeometry x="60" y="440" width="30" height="60" as="geometry" />
        </mxCell>
        <mxCell id="yd7pohFZ6n4gRY5iTDO3-62" style="edgeStyle=none;rounded=0;orthogonalLoop=1;jettySize=auto;html=1;strokeColor=#000000;fontSize=14;" edge="1" parent="SaJ00nuI3zCXwTViar2f-1" source="yd7pohFZ6n4gRY5iTDO3-54" target="yd7pohFZ6n4gRY5iTDO3-61">
          <mxGeometry relative="1" as="geometry" />
        </mxCell>
        <mxCell id="yd7pohFZ6n4gRY5iTDO3-63" value="发送详细地址" style="edgeLabel;html=1;align=center;verticalAlign=middle;resizable=0;points=[];fontSize=14;" vertex="1" connectable="0" parent="yd7pohFZ6n4gRY5iTDO3-62">
          <mxGeometry x="0.1533" y="-1" relative="1" as="geometry">
            <mxPoint as="offset" />
          </mxGeometry>
        </mxCell>
        <mxCell id="yd7pohFZ6n4gRY5iTDO3-65" value="&lt;b style=&quot;font-size: 15px;&quot;&gt;下单抢单场景序列图&lt;/b&gt;" style="text;whiteSpace=wrap;html=1;fontSize=15;" vertex="1" parent="SaJ00nuI3zCXwTViar2f-1">
          <mxGeometry x="150" y="20" width="150" height="30" as="geometry" />
        </mxCell>
      </root>
    </mxGraphModel>
  </diagram>
</mxfile>
